<!-- farm-apple.svg -->
<svg xmlns="http://www.w3.org/2000/svg" viewBox="0 0 24 24">
  <g stroke-linecap="round" stroke-linejoin="round" stroke-width="1.6">
    <path
      d="M9.5 7.5c-2.3 0-4 1.8-4 4.4 0 3.4 2.1 6.1 5.2 6.6.7.1 1.4.1 2.1 0 3.1-.5 5.2-3.2 5.2-6.6 0-2.6-1.7-4.4-4-4.4-1 0-1.9.4-2.5 1-.6-.6-1.5-1-2.5-1Z"
      fill="#F44336" stroke="#C62828"/>
    <path d="M12 7c.1-1.4.7-2.4 1.8-3.1" fill="none" stroke="#8D6E63"/>
    <path d="M13.8 4c1.2-.3 2.2-.1 3 .5-.4 1-1.2 1.8-2.4 2.2" fill="#A5D6A7" stroke="#2E7D32"/>
  </g>
</svg>
