<!-- garden-sunflower.svg -->
<svg xmlns="http://www.w3.org/2000/svg" viewBox="0 0 24 24">
  <g stroke="#FBC02D" stroke-width="1.4" stroke-linecap="round" stroke-linejoin="round">
    <circle cx="12" cy="9" r="2.6" fill="#FFEB3B" stroke="#F9A825"/>
    <g fill="#FBC02D">
      <path d="M12 4.1 13 6.1 12 7.1 11 6.1Z"/>
      <path d="M8.4 5.1 10 6.3 9.7 7.7 8.1 7.3Z"/>
      <path d="M6.4 8.4 8.3 8.7 8.7 10.1 7.1 10.4Z"/>
      <path d="M7.1 11.6 8.7 11.9 8.3 13.3 6.4 13.6Z"/>
      <path d="M8.1 14.7 9.7 14.3 10 15.7 8.4 16.9Z"/>
      <path d="M12 13.9 13 15.9 12 16.9 11 15.9Z"/>
      <path d="M15.6 14.9 14 13.7 14.3 12.3 15.9 12.7Z"/>
      <path d="M17.6 11.6 15.7 11.3 15.3 9.9 16.9 9.6Z"/>
      <path d="M16.9 8.4 15.3 8.1 15.7 6.7 17.6 6.4Z"/>
      <path d="M15.9 5.3 14.3 5.7 14 4.3 15.6 3.1Z"/>
    </g>
    <path d="M12 11.6V19" fill="none"/>
    <path d="M12 14.5c-1.2 1.1-2.6 1.7-4.1 1.8 1 1.4 2.3 2.4 4.1 2.7" fill="#C5E1A5" stroke="#8BC34A"/>
    <path d="M12 14.5c1.2 1.1 2.6 1.7 4.1 1.8-1 1.4-2.3 2.4-4.1 2.7" fill="#C5E1A5" stroke="#8BC34A"/>
  </g>
</svg>
